PathFileType	4	(X/Y/Z)	Patient4_TMGait_0pt8_01_right_45.trc.trc
DataRate	CameraRate	NumFrames	NumMarkers	Units	OrigDataRate	OrigDataStartFrame	OrigNumFrames
83.832335329341	83.832335329341	5	33	mm	83.832335329341	89	       141
Frame#	Time	Sacral			L.Shoulder			Chest			R.Shoulder			Neck			R.ASIS			L.ASIS			R.Thigh.Superior			R.Thigh.Lateral			R.Thigh.Inferior			R.Patella			L.Thigh.Superior			L.Thigh.Lateral			L.Thigh.Inferior			L.Patella			L.Shank.Superior			L.Shank.Lateral			L.Shank.Inferior			R.Shank.Superior			R.Shank.Lateral			R.Shank.Inferior			R.Heel			R.Midfoot.Superior			R.Midfoot.Lateral			R.Toe			L.Heel			L.Midfoot.Lateral			L.Midfoot.Superior			L.Toe			L.Elbow			L.Wrist			R.Elbow			R.Wrist			
		X1	Y1	Z1	X2	Y2	Z2	X3	Y3	Z3	X4	Y4	Z4	X5	Y5	Z5	X6	Y6	Z6	X7	Y7	Z7	X8	Y8	Z8	X9	Y9	Z9	X10	Y10	Z10	X11	Y11	Z11	X12	Y12	Z12	X13	Y13	Z13	X14	Y14	Z14	X15	Y15	Z15	X16	Y16	Z16	X17	Y17	Z17	X18	Y18	Z18	X19	Y19	Z19	X20	Y20	Z20	X21	Y21	Z21	X22	Y22	Z22	X23	Y23	Z23	X24	Y24	Z24	X25	Y25	Z25	X26	Y26	Z26	X27	Y27	Z27	X28	Y28	Z28	X29	Y29	Z29	X30	Y30	Z30	X31	Y31	Z31	X32	Y32	Z32	X33	Y33	Z33	

89	51.659714285714	888.449267909828	1005.890593213377	473.490607571369	1047.834884410420	1439.410852111084	314.813188067287	1157.967524408322	1367.083987681102	469.921153416506	1077.395022428687	1430.930640543692	649.033365848366	1034.035622847814	1493.388710517352	474.744230181182	1111.684437386999	935.880252335652	590.194203600983	1103.503197941611	964.042939050486	317.511515381376	1133.203133326787	726.358487396958	576.694873708027	1040.183133896789	625.729831890054	639.994594693126	1120.057566354049	558.144017954246	573.207926622935	1099.714930842088	451.114517319031	595.424346246670	1170.227079422260	764.099990810274	349.749797136510	1096.773405802751	637.069222229625	288.811050292725	1189.600472653861	569.472564431291	353.770491660052	1198.657980712493	499.989695606340	364.652562704884	1176.780083625148	425.199148029958	357.000209108762	1097.192912457331	304.996765187871	304.391038146561	1153.174366225403	197.697754870176	377.122475886774	1016.384118102738	389.974415565621	598.633221956068	889.265450557550	360.693207405930	651.225824884223	871.492665055490	250.759535478341	604.544956598324	668.154601137519	204.618577323604	568.279564669688	825.507039967700	123.204765827596	608.455744550265	715.372360191247	130.553658134316	635.047088641392	877.649590699013	29.016953040244	620.937321494429	1032.299469307925	38.345410047061	415.374672889778	1107.835728141401	36.757433364926	335.975738586322	1189.870701151730	98.178150726233	365.198767229806	1318.948168998711	46.808322244777	338.700689967414	967.783494437939	1097.490721453151	197.882214341382	983.213664992279	837.162290830049	195.045391579775	1159.986626927692	1095.313575505947	764.375625830441	1386.845366307022	1174.392843926030	693.513632256602	
90	51.671642857143	887.668141907837	1006.233906559311	470.768158648496	1048.199585159165	1440.487139776600	313.016344309921	1157.515641871613	1367.936368671554	468.544488454332	1075.794667372970	1431.241648862272	647.427983668835	1033.551485827423	1494.042515878615	472.957753846768	1111.164445576787	936.754934410167	587.743095600306	1103.259301932059	964.827794454774	315.162919441572	1138.562087145296	728.835411410653	574.891907112425	1049.363023899829	626.213639338997	638.874981351117	1130.777814744100	560.196446933563	571.486628215362	1112.304356295060	451.969950140642	594.227556470901	1168.399911573077	763.236282060040	347.907787466651	1093.488180609786	637.100196708231	287.113444018861	1184.969900867704	568.537248691343	352.600073307061	1193.068256544289	499.077141477058	363.672919014317	1170.657421307996	424.330836780844	356.018089433294	1090.154271986092	304.678770806641	303.601464371130	1144.759224865353	197.116327144485	376.867258282436	1027.478952838815	391.535521863140	597.853426320091	899.702355148138	366.185082657380	651.158603514058	878.572344891239	256.664484932801	605.212844620020	675.761086485335	221.395284339644	569.652134537698	827.013321746648	128.271940077218	609.628314685364	717.521301481124	143.465692731242	636.051113365037	870.824933511259	27.374132453267	621.665955432425	1022.657872400698	38.280605814875	415.326418811347	1098.208471446825	36.635359779693	335.923242440645	1180.345732086094	97.982226913030	365.235387101272	1309.435059708149	46.334183878131	338.759304603335	976.162490518449	1097.225569789331	192.807390245541	1006.974962752691	837.951596242196	189.614230370877	1145.864984173034	1091.321255481576	760.724504275113	1380.578455118877	1150.672537360840	695.129586536269	
91	51.683571428571	886.718094592178	1006.445766557948	468.230516797079	1048.513340528563	1441.349559451919	311.275897634204	1156.963728039657	1368.618548045902	467.272795334120	1074.087344116090	1431.417718972843	645.919417917529	1033.022648010955	1494.566133336015	471.230034816100	1110.471187579171	937.507338681934	585.535097550554	1102.842712200706	965.424609748852	313.022040050402	1143.855037556697	731.558430376343	573.007700954788	1058.727186179197	626.976416395520	637.657017744461	1141.498319807514	562.704450112101	569.410742529333	1125.167203331859	453.323694566056	592.534329956073	1166.351321350388	762.345470822683	346.349949103468	1090.156203939630	637.149931811288	285.434292487591	1180.252692441186	567.618351321089	351.478831823853	1187.404665341646	498.150267732129	362.643892802684	1164.466309093918	423.450098636461	355.008189187239	1083.037018436885	304.349120875055	302.804495426121	1136.337723552551	196.536485921726	376.566436566447	1039.042634871002	393.473496706553	596.647960674533	910.883902490841	371.615735369577	650.811757001598	886.606969850153	262.616138408156	605.420001803196	684.802350172615	237.290428327577	570.569176365877	829.952469352051	133.850599790844	610.627726984586	721.369110668906	156.260273334753	636.870493360783	865.670377701763	26.125923626750	622.577693464527	1013.029184511940	38.232468844141	415.257368057035	1088.590423363471	36.520503359541	335.848875115413	1170.836461817827	97.780418941808	365.240566019536	1299.931690539551	45.861448364298	338.797407688094	984.657218267825	1097.060112459636	187.689303496245	1031.330494166851	839.832327048673	184.325871148918	1131.845921875345	1087.709165592890	756.737234440327	1373.065646427433	1125.480417445731	696.959028453939	
92	51.695500000000	885.634020191074	1006.575814733089	465.881161632116	1048.777485849340	1442.032417781463	309.600788692624	1156.327610332995	1369.162914364683	466.105012871571	1072.305134267666	1431.503769569486	644.504113901353	1032.468506763225	1494.997764808278	469.562968099475	1109.608056140948	938.178348261962	583.576486526497	1102.273112593847	965.883187116098	311.095332842587	1148.982328768053	734.578897272578	570.988341185719	1068.145256238326	628.093139619749	636.317609036258	1152.092605778734	565.723383711628	567.014585602124	1138.178664846293	455.236032791921	590.429847542688	1164.133331558865	761.451815823261	344.976093372348	1086.705329985663	637.206123305602	283.812970926027	1175.436453180453	566.706611902977	350.386604633766	1181.660827596748	497.218942173515	361.606011424823	1158.202074670647	422.576959187797	354.011545294825	1075.842977871991	304.031445557856	302.025580960540	1127.911513610030	195.974705993896	376.240272916451	1050.960113557999	395.815499399112	595.087755261303	922.627356437779	376.941766301023	650.156604789367	895.544568086354	268.501440915042	605.176764291926	695.015040060757	251.760185068920	570.952744177530	834.482326567620	139.756582241963	611.414457574222	726.931914469197	168.453836431393	637.438461671043	862.743871557333	25.508169797823	623.647618893031	1003.417207498879	38.202561274114	415.168700767515	1078.983266504364	36.421768445739	335.755494967334	1161.337637487731	97.586682041542	365.217885248121	1290.434057753626	45.416687406885	338.805498269942	993.311421173795	1097.017761375701	182.585126688877	1056.108219924751	842.900867549091	179.236371513647	1118.086161275878	1084.511818028277	752.510298113512	1364.002189909710	1099.081428084906	698.948509801858	
93	51.707428571429	884.452791375735	1006.674719658884	463.719952662655	1048.997548311103	1442.580067739639	307.998628384215	1155.625121085445	1369.607032592332	465.037441036753	1070.477797134879	1431.545940662036	643.173714321137	1031.906300779673	1495.376852774052	467.957344443867	1108.584909217902	938.816502300328	581.872967831882	1101.578066419958	966.253407929093	309.387832069853	1153.857482905230	737.937069871240	568.802633769189	1077.490003743419	629.620987278338	634.850745531845	1162.450377109120	569.288850173896	564.361308122564	1151.216976150157	457.754279239338	588.016221681992	1161.791118811197	760.560670907362	343.696340158011	1083.072767453755	637.256513724270	282.289929645975	1170.501284450140	565.789780116533	349.321475968034	1175.816790410498	496.287969958530	360.605001367899	1151.848815578050	421.728309643825	353.068241779099	1068.566065954807	303.743135255220	301.289841415239	1119.473042092054	195.443679350262	375.910895888978	1063.124974029174	398.567241619014	593.260085224229	934.752962307993	382.111006669220	649.182081089322	905.332876063242	274.191604237473	604.521066398560	706.126105504668	264.313066350323	570.757618710488	840.730480781182	145.757272201126	611.950148367454	734.186325533134	179.565438518747	637.698970618240	862.587590783945	25.696531672476	624.835769164630	993.821133108006	38.191338655553	415.063716576391	1069.385902403313	36.343993407340	335.648968846284	1151.843204466682	97.410235306654	365.173998600387	1280.936936111790	45.015595419913	338.780932340781	1002.152708876208	1097.135347376292	177.556372775608	1081.121835372079	847.232498904533	174.404357283571	1104.734026607861	1081.759586525784	748.159747014237	1353.107713656790	1071.811184013592	701.030324505954	
